<svg xmlns="http://www.w3.org/2000/svg" width="50.603" height="50.603" viewBox="0 0 50.603 50.603">
  <g id="lapiz" transform="translate(0 0)">
    <g id="Group_206" data-name="Group 206" transform="translate(0 0)">
      <path id="Subtraction_2" data-name="Subtraction 2" d="M14.344,50.6H0V36.258L27.095,9.164,41.438,23.508,14.344,50.6ZM9.563,41.039v4.782h2.789l2.59-2.59L7.372,35.66h0l-2.59,2.591v2.788Zm17.8-25.118a1.3,1.3,0,0,0-.868.464L12,30.879a1.286,1.286,0,0,0-.464.88,1.121,1.121,0,0,0,.94.929,1.3,1.3,0,0,0,.869-.465L27.842,17.73a1.285,1.285,0,0,0,.464-.88,1.122,1.122,0,0,0-.941-.929Zm17.262,4.4L30.282,5.976l4.581-4.582A4.744,4.744,0,0,1,36.408.349a5.045,5.045,0,0,1,3.686,0,4.729,4.729,0,0,1,1.543,1.046l7.571,7.571a4.741,4.741,0,0,1,1.046,1.544,5.045,5.045,0,0,1,0,3.686,4.73,4.73,0,0,1-1.046,1.544l-4.581,4.583Z" transform="translate(0)" fill="#146bab"/>
    </g>
  </g>
</svg>
