<svg xmlns="http://www.w3.org/2000/svg" width="50.799" height="39.914" viewBox="0 0 50.799 39.914">
  <g id="tickets-2" transform="translate(0 0)">
    <g id="Group_209" data-name="Group 209" transform="translate(0 0)">
      <path id="Path_213" data-name="Path 213" d="M6.35,164.453H.907a.871.871,0,0,0-.638.269A.872.872,0,0,0,0,165.36V170.8a.871.871,0,0,0,.269.638.874.874,0,0,0,.638.269H6.35a.92.92,0,0,0,.907-.907V165.36a.919.919,0,0,0-.907-.907Z" transform="translate(0 -153.567)" fill="#146bab"/>
      <path id="Path_214" data-name="Path 214" d="M6.35,383.722H.907a.87.87,0,0,0-.638.269.872.872,0,0,0-.269.638v5.443a.872.872,0,0,0,.269.637.87.87,0,0,0,.638.269H6.35a.92.92,0,0,0,.907-.907v-5.443a.919.919,0,0,0-.907-.907Z" transform="translate(0 -351.065)" fill="#146bab"/>
      <path id="Path_215" data-name="Path 215" d="M6.35,274.082H.907a.873.873,0,0,0-.638.27.872.872,0,0,0-.269.638v5.443a.871.871,0,0,0,.269.638.871.871,0,0,0,.638.269H6.35a.919.919,0,0,0,.907-.907v-5.443a.92.92,0,0,0-.907-.907Z" transform="translate(0 -252.311)" fill="#146bab"/>
      <path id="Path_216" data-name="Path 216" d="M6.35,54.817H.907a.871.871,0,0,0-.638.269A.872.872,0,0,0,0,55.724v5.443a.871.871,0,0,0,.269.638.871.871,0,0,0,.638.269H6.35a.92.92,0,0,0,.907-.907V55.724a.92.92,0,0,0-.907-.907Z" transform="translate(0 -54.817)" fill="#146bab"/>
      <path id="Path_217" data-name="Path 217" d="M148.642,383.722h-38.1a.919.919,0,0,0-.907.907v5.443a.92.92,0,0,0,.907.907h38.1a.92.92,0,0,0,.907-.907v-5.443a.918.918,0,0,0-.907-.907Z" transform="translate(-98.75 -351.065)" fill="#146bab"/>
      <path id="Path_218" data-name="Path 218" d="M148.642,274.082h-38.1a.92.92,0,0,0-.907.907v5.443a.919.919,0,0,0,.907.907h38.1a.918.918,0,0,0,.907-.907v-5.443a.92.92,0,0,0-.907-.907Z" transform="translate(-98.75 -252.311)" fill="#146bab"/>
      <path id="Path_219" data-name="Path 219" d="M149.281,55.086a.873.873,0,0,0-.638-.269h-38.1a.92.92,0,0,0-.907.907v5.443a.92.92,0,0,0,.907.907h38.1a.919.919,0,0,0,.907-.907V55.724A.873.873,0,0,0,149.281,55.086Z" transform="translate(-98.75 -54.817)" fill="#146bab"/>
      <path id="Path_220" data-name="Path 220" d="M148.642,164.453h-38.1a.919.919,0,0,0-.907.907V170.8a.92.92,0,0,0,.907.907h38.1a.919.919,0,0,0,.907-.907V165.36a.919.919,0,0,0-.907-.907Z" transform="translate(-98.75 -153.567)" fill="#146bab"/>
    </g>
  </g>
</svg>
